<svg xmlns="http://www.w3.org/2000/svg" width="200" height="32" viewBox="0 0 200 32"><defs><clipPath id="c0"><path d="M16,0 L19.8,12.224 L32,12.224 L22.182,19.776 L25.8,32 L16,24.768 L6.2,32 L9.818,19.776 L0,12.224 L12.2,12.224 Z"/></clipPath></defs><rect x="0" y="0" width="32" height="32" fill="#ddd"/><rect x="0" y="0" width="0" height="32" fill="#FFC107" clip-path="url(#c0)"/><path d="M16,0 L19.8,12.224 L32,12.224 L22.182,19.776 L25.8,32 L16,24.768 L6.2,32 L9.818,19.776 L0,12.224 L12.2,12.224 Z" fill="none" stroke="#888" stroke-width="1"/><rect x="40" y="0" width="32" height="32" fill="#ddd"/><rect x="80" y="0" width="32" height="32" fill="#ddd"/><rect x="120" y="0" width="32" height="32" fill="#ddd"/><rect x="160" y="0" width="32" height="32" fill="#ddd"/></svg>
